#Comment line ignore any data following # character 
#Hierarchical Translation and Rotation (.htr) file 
[Header]	
#Header keywords are followed by a single value 
FileType HTR		#Single word string
DataType HTRS		#Translation followed by rotation and scale data
FileVersion 1		#integer
NumSegments 64		#integer
NumFrames 3		#integer
DataFrameRate 30		#integer, data frame rate in this file
EulerRotationOrder ZYX
CalibrationUnits mm
RotationUnits Degrees
GlobalAxisofGravity Y
BoneLengthAxis Y
ScaleFactor 1.00
[SegmentNames&Hierarchy]
#CHILD	PARENT
Pinger_Root GLOBAL
Pelvis Pinger_Root
L_Hip Pelvis
R_Hip Pelvis
Rear_Leg01 Pelvis
Spine1 Pelvis
L_Leg01 L_Hip
L_Leg02 L_Leg01
L_Leg03 L_Leg02
L_Foot L_Leg03
L_Toe1_01 L_Foot
L_Toe2_01 L_Foot
L_Toe3_01 L_Foot
planeAlignerLeft L_Foot
L_Toe1_02 L_Toe1_01
L_Toe1_03 L_Toe1_02
L_Toe2_02 L_Toe2_01
L_Toe2_03 L_Toe2_02
L_Toe3_02 L_Toe3_01
L_Toe3_03 L_Toe3_02
planeLockWeightLeft planeAlignerLeft
R_Leg01 R_Hip
R_Leg02 R_Leg01
R_Leg03 R_Leg02
R_Foot R_Leg03
planeAlignerRight R_Foot
R_Toe1_01 R_Foot
R_Toe2_01 R_Foot
R_Toe3_01 R_Foot
planeLockWeightRight planeAlignerRight
R_Toe1_02 R_Toe1_01
R_Toe1_03 R_Toe1_02
R_Toe2_02 R_Toe2_01
R_Toe2_03 R_Toe2_02
R_Toe3_02 R_Toe3_01
R_Toe3_03 R_Toe3_02
Rear_Leg02 Rear_Leg01
Rear_Leg03 Rear_Leg02
Rear_Leg04 Rear_Leg03
Rear_Foot Rear_Leg04
planeAlignerCenter Rear_Foot
Rear_Toe1_01 Rear_Foot
Rear_Toe2_01 Rear_Foot
Rear_Toe3_01 Rear_Foot
planeLockWeightCenter planeAlignerCenter
Rear_Toe1_02 Rear_Toe1_01
Rear_Toe1_03 Rear_Toe1_02
Rear_Toe2_02 Rear_Toe2_01
Rear_Toe2_03 Rear_Toe2_02
Rear_Toe3_02 Rear_Toe3_01
Rear_Toe3_03 Rear_Toe3_02
Back_Bone Spine1
Head Spine1
Motor_Bone Back_Bone
Ping_Mechanism Back_Bone
BN_LookIK Head
bottomMouth Head
L_Mouth01 Head
L_mouthFront Head
mouthGun Head
R_Mouth01 Head
R_mouthFront Head
TopMouth Head
weapon_bone Head
[BasePosition]
#SegmentName Tx, Ty, Tz, Rx, Ry, Rz, BoneLength
Pinger_Root 0.000000 0.000000 0.000000 -90.000000 0.000000 0.000000 10.000000 
Pelvis 0.000000 0.000000 0.000000 0.000000 0.000000 0.000000 10.000000 
L_Hip 0.000000 0.000000 0.000000 0.000000 0.000000 0.000000 10.000000 
R_Hip 0.000000 0.000000 0.000000 0.000000 0.000000 0.000000 10.000000 
Rear_Leg01 0.000000 0.000000 0.000000 0.000000 0.000000 0.000000 10.000000 
Spine1 0.000000 0.000000 0.000000 0.000000 0.000000 0.000000 10.000000 
L_Leg01 0.000000 0.000000 0.000000 0.000000 0.000000 0.000000 10.000000 
L_Leg02 0.000000 0.000000 0.000000 0.000000 0.000000 0.000000 10.000000 
L_Leg03 0.000000 0.000000 0.000000 0.000000 0.000000 0.000000 10.000000 
L_Foot 0.000000 0.000000 0.000000 0.000000 0.000000 0.000000 10.000000 
L_Toe1_01 0.000000 0.000000 0.000000 0.000000 0.000000 0.000000 10.000000 
L_Toe2_01 0.000000 0.000000 0.000000 0.000000 0.000000 0.000000 10.000000 
L_Toe3_01 0.000000 0.000000 0.000000 0.000000 0.000000 0.000000 10.000000 
planeAlignerLeft 0.000000 0.000000 0.000000 0.000000 0.000000 0.000000 10.000000 
L_Toe1_02 0.000000 0.000000 0.000000 0.000000 0.000000 0.000000 10.000000 
L_Toe1_03 0.000000 0.000000 0.000000 0.000000 0.000000 0.000000 10.000000 
L_Toe2_02 0.000000 0.000000 0.000000 0.000000 0.000000 0.000000 10.000000 
L_Toe2_03 0.000000 0.000000 0.000000 0.000000 0.000000 0.000000 10.000000 
L_Toe3_02 0.000000 0.000000 0.000000 0.000000 0.000000 0.000000 10.000000 
L_Toe3_03 0.000000 0.000000 0.000000 0.000000 0.000000 0.000000 10.000000 
planeLockWeightLeft 0.000000 0.000000 0.000000 0.000000 0.000000 0.000000 10.000000 
R_Leg01 0.000000 0.000000 0.000000 0.000000 0.000000 0.000000 10.000000 
R_Leg02 0.000000 0.000000 0.000000 0.000000 0.000000 0.000000 10.000000 
R_Leg03 0.000000 0.000000 0.000000 0.000000 0.000000 0.000000 10.000000 
R_Foot 0.000000 0.000000 0.000000 0.000000 0.000000 0.000000 10.000000 
planeAlignerRight 0.000000 0.000000 0.000000 0.000000 0.000000 0.000000 10.000000 
R_Toe1_01 0.000000 0.000000 0.000000 0.000000 0.000000 0.000000 10.000000 
R_Toe2_01 0.000000 0.000000 0.000000 0.000000 0.000000 0.000000 10.000000 
R_Toe3_01 0.000000 0.000000 0.000000 0.000000 0.000000 0.000000 10.000000 
planeLockWeightRight 0.000000 0.000000 0.000000 0.000000 0.000000 0.000000 10.000000 
R_Toe1_02 0.000000 0.000000 0.000000 0.000000 0.000000 0.000000 10.000000 
R_Toe1_03 0.000000 0.000000 0.000000 0.000000 0.000000 0.000000 10.000000 
R_Toe2_02 0.000000 0.000000 0.000000 0.000000 0.000000 0.000000 10.000000 
R_Toe2_03 0.000000 0.000000 0.000000 0.000000 0.000000 0.000000 10.000000 
R_Toe3_02 0.000000 0.000000 0.000000 0.000000 0.000000 0.000000 10.000000 
R_Toe3_03 0.000000 0.000000 0.000000 0.000000 0.000000 0.000000 10.000000 
Rear_Leg02 0.000000 0.000000 0.000000 0.000000 0.000000 0.000000 10.000000 
Rear_Leg03 0.000000 0.000000 0.000000 0.000000 0.000000 0.000000 10.000000 
Rear_Leg04 0.000000 0.000000 0.000000 0.000000 0.000000 0.000000 10.000000 
Rear_Foot 0.000000 0.000000 0.000000 0.000000 0.000000 0.000000 10.000000 
planeAlignerCenter 0.000000 0.000000 0.000000 0.000000 0.000000 0.000000 10.000000 
Rear_Toe1_01 0.000000 0.000000 0.000000 0.000000 0.000000 0.000000 10.000000 
Rear_Toe2_01 0.000000 0.000000 0.000000 0.000000 0.000000 0.000000 10.000000 
Rear_Toe3_01 0.000000 0.000000 0.000000 0.000000 0.000000 0.000000 10.000000 
planeLockWeightCenter 0.000000 0.000000 0.000000 0.000000 0.000000 0.000000 10.000000 
Rear_Toe1_02 0.000000 0.000000 0.000000 0.000000 0.000000 0.000000 10.000000 
Rear_Toe1_03 0.000000 0.000000 0.000000 0.000000 0.000000 0.000000 10.000000 
Rear_Toe2_02 0.000000 0.000000 0.000000 0.000000 0.000000 0.000000 10.000000 
Rear_Toe2_03 0.000000 0.000000 0.000000 0.000000 0.000000 0.000000 10.000000 
Rear_Toe3_02 0.000000 0.000000 0.000000 0.000000 0.000000 0.000000 10.000000 
Rear_Toe3_03 0.000000 0.000000 0.000000 0.000000 0.000000 0.000000 10.000000 
Back_Bone 0.000000 0.000000 0.000000 0.000000 0.000000 0.000000 10.000000 
Head 0.000000 0.000000 0.000000 0.000000 0.000000 0.000000 10.000000 
Motor_Bone 0.000000 0.000000 0.000000 0.000000 0.000000 0.000000 10.000000 
Ping_Mechanism 0.000000 0.000000 0.000000 0.000000 0.000000 0.000000 10.000000 
BN_LookIK 0.000000 0.000000 0.000000 0.000000 0.000000 0.000000 10.000000 
bottomMouth 0.000000 0.000000 0.000000 0.000000 0.000000 0.000000 10.000000 
L_Mouth01 0.000000 0.000000 0.000000 0.000000 0.000000 0.000000 10.000000 
L_mouthFront 0.000000 0.000000 0.000000 0.000000 0.000000 0.000000 10.000000 
mouthGun 0.000000 0.000000 0.000000 0.000000 0.000000 0.000000 10.000000 
R_Mouth01 0.000000 0.000000 0.000000 0.000000 0.000000 0.000000 10.000000 
R_mouthFront 0.000000 0.000000 0.000000 0.000000 0.000000 0.000000 10.000000 
TopMouth 0.000000 0.000000 0.000000 0.000000 0.000000 0.000000 10.000000 
weapon_bone 0.000000 0.000000 0.000000 0.000000 0.000000 0.000000 10.000000 
#Beginning of Data. Separated by tabs
#Fr	Tx	Ty	Tz	Rx	Ry	Rz	SF
[Pinger_Root]
220 0.000000 -1840.599121 0.000000 -0.000075 -0.000000 -0.000020 1840.599121
221 0.000000 -1854.477173 0.000000 -0.000075 -0.000000 -0.000020 1854.477173
222 0.000000 -1868.670288 0.000000 -0.000075 -0.000000 -0.000020 1868.670288
[Pelvis]
220 1364.398193 15914.425781 5026.387695 98.725555 -58.747925 -110.194946 16745.001953
221 1364.463989 15928.444336 5025.218750 98.708397 -58.684978 -110.175301 16757.980469
222 1364.529907 15942.461914 5024.051270 98.691284 -58.622005 -110.155708 16770.960938
[L_Hip]
220 5.766392 125.831482 872.656799 -93.401085 -57.579308 0.953265 881.701050
221 5.766392 125.831482 872.656799 -93.391823 -57.474724 0.941612 881.701050
222 5.766392 125.831482 872.656799 -93.382637 -57.370159 0.930052 881.701050
[R_Hip]
220 5.765438 125.836372 -872.654907 -120.019485 45.002186 -31.166246 881.699829
221 5.765438 125.836372 -872.654907 -119.956085 44.891312 -31.076063 881.699829
222 5.765438 125.836372 -872.654907 -119.893097 44.780403 -30.986263 881.699829
[Rear_Leg01]
220 -192.298416 -925.602966 -0.001907 -172.064758 3.301029 -94.173981 945.367432
221 -192.298416 -925.602966 -0.001907 -172.054031 3.333153 -94.111282 945.367432
222 -192.298416 -925.602966 -0.001907 -172.049255 3.352233 -94.105606 945.367432
[Spine1]
220 290.604584 5.007505 0.000477 7.590589 0.014265 55.516140 290.647736
221 290.604584 5.007505 0.000477 7.589557 0.014641 55.560940 290.647736
222 290.604584 5.007505 0.000477 7.588525 0.015016 55.605751 290.647736
[L_Leg01]
220 761.932007 -0.002384 -0.069261 128.254257 -67.497482 -120.963593 761.932068
221 761.932007 -0.002384 -0.069261 128.287598 -67.655350 -121.170395 761.932068
222 761.932007 -0.002384 -0.069261 127.997307 -68.044090 -121.148979 761.932068
[L_Leg02]
220 1441.140503 -0.000954 -0.000715 8.115957 -3.337405 -132.848816 1441.140503
221 1441.140503 -0.000954 -0.000715 8.103504 -3.340213 -133.106064 1441.140503
222 1441.140503 -0.000954 -0.000715 8.091060 -3.343076 -133.363373 1441.140503
[L_Leg03]
220 1686.963989 -0.000715 -0.000954 0.043691 -0.010182 98.286621 1686.963989
221 1686.963989 -0.000715 -0.000954 0.043698 -0.010150 98.203194 1686.963989
222 1686.963989 -0.000715 -0.000954 0.043706 -0.010118 98.119759 1686.963989
[L_Foot]
220 3041.570068 -30.715107 11.297464 -34.418602 30.095203 24.176502 3041.746094
221 3041.570068 -30.715107 11.297464 -33.998398 30.075638 24.223536 3041.746094
222 3041.570068 -30.715107 11.297464 -32.808315 30.027193 24.304350 3041.746094
[L_Toe1_01]
220 -188.216690 -224.732346 -21.137953 73.496002 -5.946880 -174.414093 293.899567
221 -188.216690 -224.732346 -21.137953 73.844124 -5.969670 -174.448944 293.899567
222 -188.216690 -224.732346 -21.137953 74.790596 -5.974041 -174.373093 293.899567
[L_Toe2_01]
220 200.746536 -219.926590 148.838394 -73.061241 -15.542227 -54.090126 332.896027
221 200.746536 -219.926590 148.838394 -73.395615 -15.642591 -54.097034 332.896027
222 200.746536 -219.926590 148.838394 -74.313049 -16.028471 -54.101219 332.896027
[L_Toe3_01]
220 188.832520 -219.859131 -191.078659 -124.702698 44.818893 -58.611439 347.140900
221 188.832520 -219.859131 -191.078659 -124.252251 44.209347 -58.885139 347.140900
222 188.832520 -219.859131 -191.078659 -123.009674 42.656197 -59.655605 347.140900
[planeAlignerLeft]
220 0.812531 -811.448792 -0.314951 0.000000 -90.000000 -90.001900 811.449280
221 0.812531 -811.448792 -0.314951 0.000000 -90.000000 -90.001900 811.449280
222 0.812531 -811.448792 -0.314951 0.000000 -90.000000 -90.001900 811.449280
[L_Toe1_02]
220 413.761139 0.000477 0.000000 0.001386 -25.777527 0.001386 413.761139
221 413.761139 0.000477 0.000000 0.001385 -25.824186 0.001385 413.761139
222 413.761139 0.000477 0.000000 0.001385 -25.870823 0.001385 413.761139
[L_Toe1_03]
220 464.317322 0.000358 -0.000089 0.003232 47.390560 0.003232 464.317322
221 464.317322 0.000358 -0.000089 0.003263 47.821445 0.003263 464.317322
222 464.317322 0.000358 -0.000089 0.003295 48.252296 0.003295 464.317322
[L_Toe2_02]
220 342.235809 -0.000477 0.000238 0.001182 -76.029961 0.001182 342.235809
221 342.235809 -0.000477 0.000238 0.001183 -75.896820 0.001183 342.235809
222 342.235809 -0.000477 0.000238 0.001183 -75.763672 0.001183 342.235809
[L_Toe2_03]
220 420.210846 -0.000715 0.000000 -179.991104 83.816521 -179.987595 420.210846
221 420.210846 -0.000715 0.000000 -179.990707 84.037277 -179.987213 420.210846
222 420.210846 -0.000715 0.000000 -179.989792 84.494949 -179.986282 420.210846
[L_Toe3_02]
220 329.270111 0.000954 0.000000 0.001176 -82.525665 0.001176 329.270111
221 329.270111 0.000954 0.000000 0.001176 -82.489136 0.001176 329.270111
222 329.270111 0.000954 0.000000 0.001176 -82.452515 0.001176 329.270111
[L_Toe3_03]
220 439.137451 -0.001907 0.000954 179.998123 68.970535 -179.997299 439.137451
221 439.137451 -0.001907 0.000954 179.999756 69.107513 -179.996185 439.137451
222 439.137451 -0.001907 0.000954 -179.998581 69.244560 -179.995041 439.137451
[planeLockWeightLeft]
220 -0.000954 0.000238 -0.000305 -0.011826 -0.004376 0.005620 0.001029
221 -0.000954 0.000238 -0.000305 -0.011826 -0.004376 0.005620 0.001029
222 -0.000954 0.000238 -0.000305 -0.011826 -0.004376 0.005620 0.001029
[R_Leg01]
220 761.455627 -0.001907 -0.000358 49.959072 -41.042404 118.567261 761.455688
221 761.455627 -0.001907 -0.000358 50.123451 -40.966282 118.542389 761.455688
222 761.455627 -0.001907 -0.000358 50.629261 -40.992371 118.435455 761.455688
[R_Leg02]
220 1441.140625 0.000000 -0.000238 -20.929085 1.151217 -109.393845 1441.140625
221 1441.140625 0.000000 -0.000238 -20.962593 1.140225 -109.341286 1441.140625
222 1441.140625 0.000000 -0.000238 -20.973806 1.059006 -109.645828 1441.140625
[R_Leg03]
220 1686.963989 0.000954 0.001431 0.040827 -0.018593 121.021667 1686.963989
221 1686.963989 0.000954 0.001431 0.040821 -0.018606 121.057549 1686.963989
222 1686.963989 0.000954 0.001431 0.040784 -0.018688 121.287369 1686.963989
[R_Foot]
220 3041.560059 -30.531288 -11.204481 28.876179 -28.297976 17.557940 3041.734131
221 3041.560059 -30.531288 -11.204481 28.354689 -28.314079 17.548100 3041.734131
222 3041.560059 -30.531288 -11.204481 26.904488 -28.293085 17.586956 3041.734131
[planeAlignerRight]
220 -0.635147 -812.270569 -0.364304 0.000000 -89.960434 -90.005180 812.270874
221 -0.635147 -812.270569 -0.364304 0.000000 -89.960434 -90.005180 812.270874
222 -0.635147 -812.270569 -0.364304 0.000000 -89.960434 -90.005180 812.270874
[R_Toe1_01]
220 -188.383347 -224.864899 21.052242 102.548119 -1.972337 -174.622284 294.101532
221 -188.383347 -224.864899 21.052242 102.109871 -1.935116 -174.704559 294.101532
222 -188.383347 -224.864899 21.052242 100.903809 -1.879929 -174.677521 294.101532
[R_Toe2_01]
220 200.637817 -220.002121 -148.787384 -125.579994 11.789338 -63.049477 332.857574
221 200.637817 -220.002121 -148.787384 -124.921173 12.047798 -63.046307 332.857574
222 200.637817 -220.002121 -148.787384 -123.123726 12.906787 -63.057125 332.857574
[R_Toe3_01]
220 188.606735 -220.092957 191.126343 -67.287056 -37.326042 -59.840736 347.192566
221 188.606735 -220.092957 191.126343 -67.275642 -36.760426 -60.262787 347.192566
222 188.606735 -220.092957 191.126343 -67.298187 -35.358791 -61.383259 347.192566
[planeLockWeightRight]
220 -0.000477 0.000000 0.000000 -0.011823 -0.004379 -0.000027 0.000477
221 -0.000477 0.000000 0.000000 -0.011823 -0.004379 -0.000027 0.000477
222 -0.000477 0.000000 0.000000 -0.011823 -0.004379 -0.000027 0.000477
[R_Toe1_02]
220 413.762085 0.000477 -0.000119 0.001385 -25.886051 0.001385 413.762085
221 413.762085 0.000477 -0.000119 0.001385 -25.850534 0.001385 413.762085
222 413.762085 0.000477 -0.000119 0.001385 -25.815014 0.001385 413.762085
[R_Toe1_03]
220 464.317810 0.000000 0.001088 0.004069 56.466370 0.004069 464.317810
221 464.317810 0.000000 0.001088 0.004127 56.958443 0.004127 464.317810
222 464.317810 0.000000 0.001088 0.004229 57.777225 0.004229 464.317810
[R_Toe2_02]
220 342.234741 -0.000954 0.000238 -0.010139 -74.143013 0.007970 342.234741
221 342.234741 -0.000954 0.000238 -0.011631 -74.045525 0.009966 342.234741
222 342.234741 -0.000954 0.000238 -0.013101 -73.947906 0.011940 342.234741
[R_Toe2_03]
220 420.210846 0.000715 -0.000268 -179.895340 89.359894 -179.898834 420.210846
221 420.210846 0.000715 -0.000268 0.000000 89.682861 -0.003493 420.210846
222 420.210846 0.000715 -0.000268 0.000000 89.777946 -0.003499 420.210846
[R_Toe3_02]
220 329.270355 -0.000477 -0.000954 0.001176 -82.166389 0.001176 329.270355
221 329.270355 -0.000477 -0.000954 0.001176 -82.136086 0.001176 329.270355
222 329.270355 -0.000477 -0.000954 0.001177 -81.864433 0.001177 329.270355
[R_Toe3_03]
220 439.137939 0.000238 0.001431 -179.998367 70.620605 -179.994812 439.137939
221 439.137939 0.000238 0.001431 -179.998276 71.136765 -179.994720 439.137939
222 439.137939 0.000238 0.001431 -179.998047 72.192284 -179.994522 439.137939
[Rear_Leg02]
220 1162.777710 -0.029802 0.005960 5.824577 0.416291 -147.002563 1162.777710
221 1162.777710 -0.029802 0.005960 5.815110 0.400156 -147.115143 1162.777710
222 1162.777710 -0.029802 0.005960 5.805673 0.384001 -147.227737 1162.777710
[Rear_Leg03]
220 607.192505 -0.013351 -0.073195 0.010279 -0.005523 72.856087 607.192505
221 607.192505 -0.013351 -0.073195 0.010279 -0.005522 72.849472 607.192505
222 607.192505 -0.013351 -0.073195 0.010279 -0.005522 72.842850 607.192505
[Rear_Leg04]
220 995.874512 -0.020504 -0.011921 -0.041704 -0.015159 77.409271 995.874573
221 995.874512 -0.020504 -0.011921 -0.041701 -0.015166 77.390274 995.874573
222 995.874512 -0.020504 -0.011921 -0.041707 -0.015149 77.437820 995.874573
[Rear_Foot]
220 3096.176270 -0.067472 -0.041425 -12.115170 80.826714 -148.728302 3096.176270
221 3096.176270 -0.067472 -0.041425 -12.108152 80.828918 -148.701218 3096.176270
222 3096.176270 -0.067472 -0.041425 -12.101105 80.831039 -148.674103 3096.176270
[planeAlignerCenter]
220 0.350077 0.966311 -838.790894 0.000009 0.000003 -179.999985 838.791565
221 0.350077 0.966311 -838.790894 0.000009 0.000003 -179.999985 838.791565
222 0.350077 0.966311 -838.790894 0.000009 0.000003 -179.999985 838.791565
[Rear_Toe1_01]
220 0.653352 83.966492 -371.173737 0.704539 30.832045 91.068268 380.553192
221 0.653352 83.966492 -371.173737 0.701668 30.824022 91.064041 380.553192
222 0.653352 83.966492 -371.173737 0.698796 30.815983 91.059769 380.553192
[Rear_Toe2_01]
220 178.200760 -294.826019 -362.060547 -8.167098 22.963495 -69.937134 499.765686
221 178.200760 -294.826019 -362.060547 -8.168856 23.068789 -69.921677 499.765686
222 178.200760 -294.826019 -362.060547 -8.170590 23.174082 -69.906235 499.765686
[Rear_Toe3_01]
220 -153.359680 -308.780914 -362.060852 3.761374 19.385004 -110.145241 499.952881
221 -153.359680 -308.780914 -362.060852 3.762676 19.537058 -110.153587 499.952881
222 -153.359680 -308.780914 -362.060852 3.763954 19.689114 -110.161972 499.952881
[planeLockWeightCenter]
220 -0.000062 0.000238 0.000000 -0.011814 -0.004373 -0.000015 0.000246
221 -0.000062 0.000238 0.000000 -0.011814 -0.004373 -0.000015 0.000246
222 -0.000062 0.000238 0.000000 -0.011814 -0.004373 -0.000015 0.000246
[Rear_Toe1_02]
220 379.707825 0.194073 0.000477 -0.002651 -32.410984 -0.002651 379.707855
221 379.707825 0.194073 0.000477 -0.002651 -32.414944 -0.002651 379.707855
222 379.707825 0.194073 0.000477 -0.002651 -32.418907 -0.002651 379.707855
[Rear_Toe1_03]
220 500.129700 0.165701 0.000119 -179.980545 86.280792 -179.984039 500.129761
221 500.129700 0.165701 0.000119 -179.979858 86.419746 -179.983353 500.129761
222 500.129700 0.165701 0.000119 -179.979111 86.558723 -179.982605 500.129761
[Rear_Toe2_02]
220 340.494507 0.000238 -0.000954 0.001267 -45.707050 0.001267 340.494507
221 340.494507 0.000238 -0.000954 0.001266 -46.056591 0.001266 340.494507
222 340.494507 0.000238 -0.000954 0.001264 -46.406124 0.001264 340.494507
[Rear_Toe2_03]
220 433.103577 0.000000 0.000238 -0.003284 39.735653 0.000578 433.103546
221 433.103577 0.000000 0.000238 -0.003291 40.100895 0.000566 433.103546
222 433.103577 0.000000 0.000238 -0.003297 40.466133 0.000554 433.103546
[Rear_Toe3_02]
220 340.494141 -0.000358 -0.000477 -0.002603 -36.357403 -0.002603 340.494171
221 340.494141 -0.000358 -0.000477 -0.002598 -36.814796 -0.002598 340.494171
222 340.494141 -0.000358 -0.000477 -0.002593 -37.272198 -0.002593 340.494171
[Rear_Toe3_03]
220 433.103577 0.001431 -0.000238 0.006391 30.419737 -0.001667 433.103546
221 433.103577 0.001431 -0.000238 0.006398 30.831673 -0.001644 433.103546
222 433.103577 0.001431 -0.000238 0.006405 31.243635 -0.001620 433.103546
[Back_Bone]
220 1312.175781 -701.934692 0.000954 1.394253 0.483128 -104.609390 1488.125488
221 1312.175781 -701.934692 0.000954 1.394090 0.483600 -104.648125 1488.125488
222 1312.175781 -701.934692 0.000954 1.393926 0.484071 -104.686852 1488.125488
[Head]
220 1406.159424 809.709290 0.001431 -1.944367 2.586499 4.350462 1622.625488
221 1406.159424 809.709290 0.001431 -1.942964 2.585174 4.364606 1622.625488
222 1406.159424 809.709290 0.001431 -1.941562 2.583848 4.378750 1622.625488
[Motor_Bone]
220 1158.364380 -417.834747 0.000477 -0.093959 0.077856 -103.794075 1231.419434
221 1158.364380 -417.834747 0.000477 -0.093951 0.077867 -103.781517 1231.419434
222 1158.364380 -417.834747 0.000477 -0.093942 0.077877 -103.768936 1231.419434
[Ping_Mechanism]
220 1094.755737 -369.083679 -25.776772 0.000103 -0.000053 82.120995 1155.585327
221 1094.408691 -370.288300 -25.794340 0.000103 -0.000053 82.120995 1155.642212
222 1094.061646 -371.492950 -25.811907 0.000103 -0.000053 82.120995 1155.700684
[BN_LookIK]
220 193.241119 1380.371704 -0.002861 0.000000 89.965736 -31.038179 1393.832153
221 193.241119 1380.371704 -0.002861 0.000000 89.965736 -31.038179 1393.832153
222 193.241119 1380.371704 -0.002861 0.000000 89.965736 -31.038179 1393.832153
[bottomMouth]
220 -435.092926 615.759399 -0.000954 -0.000022 0.000016 73.527184 753.966492
221 -435.092926 615.759399 -0.000954 -0.000022 0.000016 73.527184 753.966492
222 -435.092926 615.759399 -0.000954 -0.000022 0.000016 73.527184 753.966492
[L_Mouth01]
220 554.440979 7.658243 838.222046 150.204178 23.759130 109.605339 1005.027161
221 554.440979 7.658243 838.222046 150.204178 23.759130 109.605339 1005.027161
222 554.440979 7.658243 838.222046 150.204178 23.759130 109.605339 1005.027161
[L_mouthFront]
220 551.629089 934.514771 339.150421 0.000081 2.804060 79.119301 1136.941284
221 551.629089 934.514771 339.150421 0.000081 2.804060 79.119301 1136.941284
222 551.629089 934.514771 339.150421 0.000081 2.804060 79.119301 1136.941284
[mouthGun]
220 55.332661 1627.420898 0.000000 0.000023 0.000009 -11.038128 1628.361328
221 55.332661 1627.420898 0.000000 0.000023 0.000009 -11.038128 1628.361328
222 55.332661 1627.420898 0.000000 0.000023 0.000009 -11.038128 1628.361328
[R_Mouth01]
220 554.442383 7.659197 -838.223938 29.795891 -23.759109 109.605331 1005.029541
221 554.442383 7.659197 -838.223938 29.795891 -23.759109 109.605331 1005.029541
222 554.442383 7.659197 -838.223938 29.795891 -23.759109 109.605331 1005.029541
[R_mouthFront]
220 551.629089 934.514282 -339.151367 0.000029 -2.803930 79.119133 1136.941162
221 551.629089 934.514282 -339.151367 0.000029 -2.803930 79.119133 1136.941162
222 551.629089 934.514282 -339.151367 0.000029 -2.803930 79.119133 1136.941162
[TopMouth]
220 461.269867 -56.106091 -0.008583 -0.000059 -0.000268 92.025169 464.669525
221 461.269867 -56.106091 -0.008583 -0.000059 -0.000268 92.025169 464.669525
222 461.269867 -56.106091 -0.008583 -0.000059 -0.000268 92.025169 464.669525
[weapon_bone]
220 -987.239868 1448.372803 0.001431 0.000000 89.965736 -31.038221 1752.833740
221 -987.239868 1448.372803 0.001431 0.000000 89.965736 -31.038221 1752.833740
222 -987.239868 1448.372803 0.001431 0.000000 89.965736 -31.038221 1752.833740
